<svg id="Layer_1" data-name="Layer 1" xmlns="http://www.w3.org/2000/svg" xmlns:xlink="http://www.w3.org/1999/xlink" viewBox="0 0 2476.96 923.38"><defs><style>.cls-1{fill:#dd6726;}.cls-2{fill:#bc5815;}.cls-3{fill:#e06f22;}.cls-4{fill:#ee7922;}.cls-5{fill:#c9471f;}.cls-6{fill:#d66b22;}.cls-7{fill:url(#linear-gradient);}.cls-8{fill:url(#linear-gradient-2);}.cls-9{fill:url(#linear-gradient-3);}.cls-10{fill:url(#linear-gradient-4);}.cls-11{fill:url(#linear-gradient-5);}.cls-12{fill:url(#linear-gradient-6);}.cls-13{fill:url(#linear-gradient-7);}.cls-14{fill:url(#linear-gradient-20);}.cls-15{fill:url(#linear-gradient-21);}.cls-16{fill:url(#linear-gradient-22);}.cls-17{fill:url(#linear-gradient-23);}.cls-18{fill:url(#linear-gradient-24);}.cls-19{fill:#f4861e;}</style><linearGradient id="linear-gradient" x1="535.89" y1="339.98" x2="-74.4" y2="339.98" gradientUnits="userSpaceOnUse"><stop offset="0" stop-color="#faac18"/><stop offset="0.21" stop-color="#f9a619"/><stop offset="0.51" stop-color="#f6931c"/><stop offset="0.71" stop-color="#f4831f"/><stop offset="1" stop-color="#df4f27"/></linearGradient><linearGradient id="linear-gradient-2" x1="535.9" y1="275.37" x2="-74.4" y2="275.37" xlink:href="#linear-gradient"/><linearGradient id="linear-gradient-3" x1="535.9" y1="476.19" x2="-74.41" y2="476.19" xlink:href="#linear-gradient"/><linearGradient id="linear-gradient-4" x1="535.89" y1="831.48" x2="-74.4" y2="831.48" xlink:href="#linear-gradient"/><linearGradient id="linear-gradient-5" x1="535.91" y1="741.13" x2="-74.4" y2="741.13" xlink:href="#linear-gradient"/><linearGradient id="linear-gradient-6" x1="535.91" y1="691.99" x2="-74.42" y2="691.99" xlink:href="#linear-gradient"/><linearGradient id="linear-gradient-7" x1="601.24" y1="754.5" x2="2400.74" y2="754.5" xlink:href="#linear-gradient"/><linearGradient id="linear-gradient-20" x1="557.45" y1="739.1" x2="2519.84" y2="739.1" xlink:href="#linear-gradient"/><linearGradient id="linear-gradient-21" x1="584.99" y1="425.27" x2="2557.63" y2="425.27" xlink:href="#linear-gradient"/><linearGradient id="linear-gradient-22" x1="584.98" y1="425.27" x2="2557.66" y2="425.27" xlink:href="#linear-gradient"/><linearGradient id="linear-gradient-23" x1="585.01" y1="425.27" x2="2557.6" y2="425.27" xlink:href="#linear-gradient"/><linearGradient id="linear-gradient-24" x1="585.01" y1="425.27" x2="2557.62" y2="425.27" xlink:href="#linear-gradient"/></defs><path class="cls-1" d="M2133.61,311.3a104.86,104.86,0,0,0-23.85-39.43c-10.74-11.13-24.5-20.12-40.94-26.74s-36-9.91-58.46-9.91H1831a24.59,24.59,0,0,0-24.59,24.59v57.27l.47,208V633.72h81.87l11.46-9.2-11.46-18.18V487.62a7.91,7.91,0,0,1,.21-2,4.89,4.89,0,0,1,2.07-.31h119.38c23.33,0,43.6-3.85,60.2-11.47s30.35-17.59,40.89-29.73a112.51,112.51,0,0,0,22.8-41.36,157,157,0,0,0,6.85-45.34A144.13,144.13,0,0,0,2133.61,311.3Zm-77.68,66.82a43.34,43.34,0,0,1-8,14.35,38,38,0,0,1-13.84,9.95c-5.83,2.6-13,3.91-21.44,3.91H1888.7V317.08h124.49c16.06,0,27.33,4.07,34.46,12.45,7.42,8.75,11,19,11,31.32A54.59,54.59,0,0,1,2055.93,378.12Z" transform="translate(-33.17 -78.57)"/><path class="cls-2" d="M653.41,758.94l-16.86,15.5,3.34,17.33-3.34,3.07h-9.66V693.92l3.35-3.07,6.31,3.07v68.42l42.7-39h12l-30.6,29.25,36.81,39.22-3.35,3.07H682.25Z" transform="translate(-33.17 -78.57)"/><path class="cls-2" d="M823.3,777.48l4.06,6.35c-6.39,7.61-16.18,11.69-27.47,11.69-22.31,0-37.68-15.23-37.68-36.45s14.83-36.31,35.36-36.31c17.64,0,37.63,31.06,37.63,31.06s-1.15,1.12-3.35,3.08l-2.33.45-56.43,11C776.63,779.88,786.69,787,800,787,808.86,787,818,783.74,823.3,777.48Zm-51.7-19.09a22.18,22.18,0,0,0,.13,3l50.46-9.8c-2-11.69-11.42-20.54-24.62-20.54C782.34,731.05,771.6,742.21,771.6,758.39Z" transform="translate(-33.17 -78.57)"/><path class="cls-2" d="M970,776.85l6.49,3.9c-6.39,7.62-19.53,14.77-30.82,14.77-22.31,0-37.67-15.23-37.67-36.45s14.82-36.31,35.36-36.31c17.89,0,37.62,31.06,37.62,31.06a18.93,18.93,0,0,1-3.35,3.08l-3.3.64-55.45,10.78c3.53,11.56,13.6,18.64,26.93,18.64C954.66,787,964.71,783.11,970,776.85Zm-52.62-18.46a20.61,20.61,0,0,0,.14,3l50.46-9.8c-2-11.69-11.43-20.54-24.62-20.54C928.13,731.05,917.39,742.21,917.39,758.39Z" transform="translate(-33.17 -78.57)"/><path class="cls-2" d="M1133.5,759.07c0,21.77-15.23,36.45-35.63,36.45-11.43,0-21.22-4.89-27.21-14.14l3.35,36.78-3.35,3.07H1061V723.3l3.34-3.07,5.91,3.07.27,15.9c5.85-9.52,15.5-16.44,27.34-16.44C1118.27,722.76,1133.5,737.45,1133.5,759.07Zm-9.66,0c0-16.59-11.56-27.88-26.65-27.88-15.24,0-26.66,11.29-26.66,27.88S1082,787,1097.19,787C1112.28,787,1123.84,775.8,1123.84,759.07Z" transform="translate(-33.17 -78.57)"/><path class="cls-2" d="M1214.69,700.72a7,7,0,0,1,7.07-6.8,6.86,6.86,0,0,1,7.07,6.67,7.07,7.07,0,0,1-14.14.13Zm2.18,22.58,3.34-3.07,6.31,3.07,3.35,68.47-3.35,3.07h-9.65Z" transform="translate(-33.17 -78.57)"/><path class="cls-2" d="M1382.93,753.36l3.35,38.41-3.35,3.07h-9.66V754.31c0-15.09-7.89-22.85-21.49-22.85-15.37,0-25,9.52-25,25.85l3.35,34.46-3.35,3.07h-9.65V723.3l3.35-3.07,5.9,3.07.84,14.93c5.17-8.7,14-15.47,26.36-15.47C1371,722.76,1382.93,732.82,1382.93,753.36Z" transform="translate(-33.17 -78.57)"/><path class="cls-2" d="M1539.33,723.3v62.84c0,24.62-12.11,35.77-35.77,35.77-13.06,0-25.84-3.94-33.32-11l4.89-7.34a27.42,27.42,0,0,0,3.35-3.08s15,12.87,24.8,12.87c18.1,0,26.39-8.29,26.39-26v-9.11c-6,9.11-16.18,13.87-27.88,13.87-20.4,0-35.91-14.28-35.91-34.81s15.51-34.55,35.91-34.55c12,0,22.31,4.9,28.29,14.28V723.3l3.35-3.07Zm-9.39,34c0-15.51-11.42-26.12-27.2-26.12s-27.06,10.61-27.06,26.12,11.28,26.25,27.06,26.25S1529.94,772.81,1529.94,757.31Z" transform="translate(-33.17 -78.57)"/><path class="cls-2" d="M1808.48,699.64l3.34,92.13-3.34,3.07h-9.66V778.79c-6.39,11.57-17.55,16.87-32,16.87-22.31,0-36.32-13.74-36.32-39.31V699.64l3.35-3.08,6.72,3.08v56.44c0,20.4,10.74,30.6,28.15,30.6,18.09,0,29.65-10.47,29.65-32.91V699.64l3.35-3.08Z" transform="translate(-33.17 -78.57)"/><path class="cls-2" d="M2009.75,714.87v8.43h22l3.35,5.09-3.35,3.07H2010l3.34,60.31-3.34,3.07h-9.66V714.46c0-12.78,7.61-21.22,21.62-21.22,5.31,0,10.75,1.5,14.29,4.49l.08,4.14-2.82,1.9c-2.72-2.31-7.06-2.37-11.14-2.37C2014.11,701.4,2009.75,706,2009.75,714.87Z" transform="translate(-33.17 -78.57)"/><path class="cls-2" d="M2117.19,700.72a7,7,0,0,1,7.08-6.8,6.87,6.87,0,0,1,7.07,6.67,7.08,7.08,0,0,1-14.15.13Zm2.18,22.58,3.35-3.07,6.31,3.07,3.35,68.47-3.35,3.07h-9.66Z" transform="translate(-33.17 -78.57)"/><path class="cls-2" d="M2255.65,722.76l3.34,6.31-3.34,3.07c-.82,0-1.64-.13-2.32-.13-15,0-24.07,9.52-24.07,26.38l3.35,33.38-3.35,3.07h-9.66V723.3l3.35-3.07,5.9,3.07,1.26,15.44C2234.6,729.22,2242.45,722.76,2255.65,722.76Z" transform="translate(-33.17 -78.57)"/><path class="cls-2" d="M2327.31,786.68l4.36-7.61A26.16,26.16,0,0,0,2335,776s12.85,11.1,22.09,11.1c13.6,0,19.18-4.62,19.18-11.69,0-18.64-46.38-3.95-46.38-32.24,0-11.7,10.06-20.4,28.29-20.4,9.25,0,19.31,2.58,25.3,6.66l-.87,4.68-3.35,3.08a36.63,36.63,0,0,0-21.08-6.13c-12.92,0-18.63,5-18.63,11.84,0,19.31,46.38,4.76,46.38,32.23,0,12.38-10.89,20.4-29.52,20.4C2344.59,795.52,2333.16,791.72,2327.31,786.68Z" transform="translate(-33.17 -78.57)"/><path class="cls-2" d="M2502.62,790.49c-3.67,3.4-9.38,5-15,5-13.46,0-20.94-7.61-20.94-20.8V707.66l3.35-3.07,6.31,3.07V723.3H2498l3.35,5.09-3.35,3.07h-21.62v42.71c0,8.43,4.21,13.06,12.24,13.06a15.75,15.75,0,0,0,10.6-3.67l6.75,3.86Z" transform="translate(-33.17 -78.57)"/><polygon class="cls-3" points="1788.75 746.88 1689.82 746.88 1689.82 737.46 1693.17 734.39 1788.75 737.46 1792.09 743.81 1788.75 746.88"/><path class="cls-4" d="M701,246.36c-19,7-34.72,16.87-46.81,29.37a112.46,112.46,0,0,0-26.47,44.69c-5.33,16.75-8,35.4-8,55.38V634.45h81.86l10.55-9.93-10.55-27.35V482.67h233.1l10.55-9.93-10.55-68.37-1.73-.14H701.52v-29a76.39,76.39,0,0,1,3.35-23.08,41,41,0,0,1,10.88-17.39c5.24-5.06,12.51-9.17,21.64-12.22,9.43-3.14,21.46-4.73,35.75-4.73H934.62l10.55-11.08L934.62,236h-166C742.45,236,719.69,239.46,701,246.36Z" transform="translate(-33.17 -78.57)"/><path class="cls-4" d="M1295.69,429.39c12.7-7.13,25.51-11.71,33-22.71,10.1-14.83,15.21-34.4,15.21-58.17a126.66,126.66,0,0,0-7.86-45.27,92.17,92.17,0,0,0-25-36.13c-11.16-9.94-25.45-17.72-42.46-23.13-16.75-5.33-37.12-8-60.51-8H1039.2c-6-2.52-11.14-5.32-11.14-5.32s-11.86,7.51-17.56,14.9c-5.82,7.54-10.54,16.35-10.54,29.07v321.2c0,24.92,13.94,38.64,39.24,38.64h170.53c23.43,0,43.82-2.79,60.58-8.32,17-5.6,31.26-13.47,42.39-23.38,4.93-4.39,11.51-9.33,15.33-14.5,4.91-6.65,6.69-13.8,9.69-21.65a126.62,126.62,0,0,0,7.88-45.27c0-23.78-5.43-43.65-16.1-59.08C1321.59,450.87,1308.51,436.84,1295.69,429.39Zm-215-112.71H1210.3c18.35,0,31.63,3.88,39.45,11.53s11.72,17.89,11.72,31.11c0,10.06-1.34,18.49-14,25.16-6.76,3.57-18.94,3.31-18.94,3.31S1217.09,398,1209.73,398h-129Zm169,222.52c-3,2-4.39,7.39-8.29,9a56.34,56.34,0,0,1-11.63,3.39,100.23,100.23,0,0,1-18.39,1.53H1080.68V468.46h130.76c46.36,0,51.73,24,51.73,42.07C1263.17,524.41,1261.22,531.42,1249.75,539.2Z" transform="translate(-33.17 -78.57)"/><path class="cls-1" d="M1721.41,432.22c-10.39-11.4-24.6-20.73-42.23-27.76s-40-10.46-67-10.46h-89.81c-10.52,0-19.08-1.11-25.47-3.31-6.09-2.07-11-4.92-14.5-8.47a27.71,27.71,0,0,1-7.26-11.74,49,49,0,0,1-2.23-14.58c0-11.43,3.25-20.46,10-27.63,6.48-6.94,17.47-10.45,32.68-10.45h204.09l10.55-9.93L1719.65,236v0H1517.84c-22,0-41.17,2.92-57.09,8.68-16.13,5.85-29.58,14.19-40,24.79A95.87,95.87,0,0,0,1398,307.3a150.17,150.17,0,0,0-6.9,46.34,159,159,0,0,0,5.66,41.72,97.09,97.09,0,0,0,20.91,38.74c10,11.47,23.88,20.75,41.19,27.59,17.09,6.76,39.23,10.19,65.84,10.19h89.25c10.87,0,19.92,1.2,26.88,3.58,6.71,2.29,12,5.27,15.75,8.86a29,29,0,0,1,7.75,12.28,51.27,51.27,0,0,1,2.48,15.64c0,12.15-3.51,21.74-10.74,29.28-7,7.35-18.73,11.09-34.73,11.09l-212.87-9.94-10.55,9.94v81.84H1619c22.75,0,42.47-3,58.56-9,16.3-6,29.94-14.56,40.52-25.35a99,99,0,0,0,23.33-38.37,149.42,149.42,0,0,0,7.19-47.24,169.37,169.37,0,0,0-5.63-42.82A93.85,93.85,0,0,0,1721.41,432.22Z" transform="translate(-33.17 -78.57)"/><path class="cls-5" d="M2499.58,552.61H2343.25c-14.28,0-26.2-1.59-35.42-4.74-9-3-16.16-7.16-21.4-12.24a40.25,40.25,0,0,1-10.85-17.87,80.94,80.94,0,0,1-3.38-23.71V236L2200.88,226,2190.33,236V494.61c0,20,2.7,38.64,8,55.4a112.59,112.59,0,0,0,26.46,44.68c12.1,12.5,27.86,22.39,46.8,29.36,18.73,6.91,41.49,10.4,67.65,10.4h160.31l10.55-9.93-10.55-71.89Z" transform="translate(-33.17 -78.57)"/><path class="cls-6" d="M479.09,608.66c-2.82-11.24-6.67-19.53-9.49-29.83-11.23-41.19-38.53-68.38-76-87.11-62.73-31.84-127.32-63.67-191.93-96.44-32.77-16.84-63.66-36.5-89.87-63.66C51,269.83,34.11,197.75,60.32,113.48c2.81-8.43,8.72-27.42,11.51-34.91h5.66c.94,2.82-2.18,16.19-2.18,19.94,11.23,83.31,56.16,146,123.57,191,51.5,33.71,104.85,63.68,158.23,94.56,36.51,21.53,72.08,43.06,101.1,75.83,21.53,24.35,37.45,51.49,38.39,85.2.93,21.53-1.38,36.43-10.75,55.14-.93,1.88-1.88,2.51-2.82,4.36C483,604.58,481,607.69,479.09,608.66Z" transform="translate(-33.17 -78.57)"/><path class="cls-6" d="M410.56,175.3c-5.61-4.67-11.62-12.56-17.24-17.25a8.75,8.75,0,0,1,.8-.65s1.17.66,1.77,0c2.83,1.42,33.3,12.31,45.48,8.56s25.27-6.55,37.45-10.3c1.86-.93,4.67-.93,5.61,0,8.43,8.42,19.66,8.42,30,11.24,10.14,2.77,20.85-.56,23,10.07,0,.27-.28.56-.48.75-2.11,2-2.49,3-6.56,4.2-29,2.81-55.25,33.65-50.58,62.67,2.82,17.79,7.51,34.65,13.12,52.43,8.43,30.89,15.23,62.49,7.74,94.33-2.81,12.15-8.06,25.58-12.73,39.62-2.81-3.74-6.25-6.62-8.13-9.42-24.33-33.71-57.1-56.17-93.61-74.91-36.51-17.77-74-34.64-109.54-52.42-30.9-15-59.92-34.65-80.51-63.67-18.73-25.28-30.85-68.45-20.94-98.16,51.5,61.77,111.4,107.81,182.54,141.51,7.49-15.91,19.22-39.9,27.65-56.75-7.49-3.74-12-5.71-19.45-9.45-2.8-1.89-5.78-5.3-8.6-7.18a14.34,14.34,0,0,0,1.25-1.88,17.33,17.33,0,0,0,2-1.16C374.55,189.94,395.6,182.81,410.56,175.3Z" transform="translate(-33.17 -78.57)"/><path class="cls-6" d="M447.52,617.73c-.94-.94-4.67-3.15-5.6-4.09-33.71-32.77-76.39-43.29-118.52-59.19-49.61-17.8-98.3-37.46-147-57.12-37.47-15.9-69.29-40.24-88.95-76.77-9.37-17.79-14.23-43.4-19.89-63.21-1.42-8.5,2.35-13.26,1.41-19.82,3.76,2.82,3.79,5.22,5.66,7.08,50.57,47.74,106.44,90.94,172,115.27C283.16,473,318.73,487,353.36,503c38.38,17.78,67.41,47.73,84.26,88.92,3.75,10.32,11.73,10.25,14.54,20.53C452.16,613.34,448.46,617.73,447.52,617.73Z" transform="translate(-33.17 -78.57)"/><path class="cls-6" d="M33.17,1002c2.82-37.44,18.73-66.48,41.2-91.74,17.78-20.6,40.25-34.65,63.66-47.76,30.89-17.78,62.73-34.64,93.62-53.36,51.51-31.82,95.5-72.09,124.52-125.45a2,2,0,0,1,1.86-1.87c-3.73,56.16-20.57,104.85-59,146-28.08,30-60.84,52.44-96.43,72.09C154.88,926.12,109,954.2,62.21,982.28c-6.57,3.76-13.12,9.38-19.67,14.05C39.72,998.22,36.91,999.14,33.17,1002Z" transform="translate(-33.17 -78.57)"/><path class="cls-6" d="M329,647.12c-1.88,7.5-3.75,15.93-6.57,23.42-17.78,44.94-49.61,77.69-90.81,99.24-29,15-59.91,26.21-88.93,40.25-30.9,14-61.8,29-92.69,43.07a45.32,45.32,0,0,1-6.55,2.8c5.61-28.09,18.73-47.73,43.06-60.85,46.81-26.21,93.62-52.43,141.36-77.71,31.83-17.78,64.6-35.57,90.83-61.79l8.42-8.43Z" transform="translate(-33.17 -78.57)"/><path class="cls-6" d="M431.6,790.14c-26.22-15-42.67-31.6-43.59-61.54-.94-20.61-.94-40.28-1.88-60.88s-3.2-51-8.86-69.35c25.28,11.23,44.43,56.25,50.06,88.07,5.61,35.59,9.87,64.53,7.05,99.17C433.51,787.48,432.53,788.29,431.6,790.14Z" transform="translate(-33.17 -78.57)"/><path class="cls-7" d="M483.06,601.19c-2.82-11.25-5.62-21.55-8.43-31.85-11.23-41.19-37.45-69.27-74.9-88C337,449.51,272.41,417.67,207.81,384.9c-32.77-16.84-63.67-36.49-89.88-63.65-60.85-61.79-77.7-133.88-51.5-218.15,2.81-8.43,5.63-16.84,8.43-24.33h2.81c.94,2.81,3.75,5.61,3.75,9.37,11.23,83.3,56.17,146,123.57,191,51.51,33.71,104.86,63.68,158.23,94.56,36.51,21.53,72.08,43.06,101.11,75.84,21.52,24.34,37.44,51.49,38.38,85.19.94,21.53-4.67,42.14-14,60.86-.94,1.87-1.88,2.81-2.82,4.66A7,7,0,0,0,483.06,601.19Z" transform="translate(-33.17 -78.57)"/><path class="cls-8" d="M409.09,171.44c-5.62-4.67-9.36-9.35-15-14,6.55,0,12.17-1.86,16.84,0,12.18,4.69,24.34,1.89,36.53-1.86s25.26-6.55,37.44-10.3c1.86-.92,4.68-.92,5.62,0,8.42,8.43,19.65,8.43,29.95,11.24s15,9.35,16.86,20.59c-2.82,0-4.69.94-7.49.94-29,2.81-48.69,27.14-44,56.16,2.82,17.8,7.51,34.65,13.12,52.43,8.43,30.9,14,61.81,6.56,93.64-2.82,12.15-8.43,24.33-13.11,38.37-2.81-3.74-4.69-4.67-6.57-7.47-24.32-33.71-57.1-56.18-93.61-74.91-36.5-17.78-74-34.65-109.54-52.43-30.89-15-59.91-34.65-80.5-63.67-18.74-25.28-30-53.36-27.16-88,51.5,61.78,118.9,97.37,190,131.06,7.49-15.9,15-30.88,23.4-47.73L366,204.23c-2.8-1.89-4.67-3.75-7.49-5.63,2.82-1.87,4.69-4.69,7.49-5.61C380.06,185.49,394.12,179,409.09,171.44Z" transform="translate(-33.17 -78.57)"/><path class="cls-9" d="M450.29,614.28c-.94-.94-2.8-1.87-3.74-2.81-33.71-32.77-74.91-51.5-117-67.4-49.61-17.79-98.3-37.46-147-57.12-37.46-15.9-69.28-40.24-88.95-76.77-9.36-17.79-15.92-38.38-22.47-57.11-1.88-3.74-.94-8.42-1.88-15a61.86,61.86,0,0,1,7.49,6.55c50.57,47.74,110.49,80.53,176,104.86,36.53,13.1,72.1,27.16,106.73,43.07,38.39,17.78,67.41,47.74,84.26,88.92,3.76,10.32,5.62,20.63,8.43,30.91A2,2,0,0,1,450.29,614.28Z" transform="translate(-33.17 -78.57)"/><path class="cls-10" d="M39.29,991.58c2.81-37.45,18.73-66.49,41.2-91.75,17.78-20.6,40.24-34.65,63.65-47.75,30.9-17.78,62.73-34.65,93.63-53.37,51.5-31.82,95.5-72.09,124.52-125.45a2,2,0,0,1,1.86-1.87c-3.74,56.17-20.58,104.85-59,146-28.08,30-60.84,52.44-96.42,72.09C161,915.75,115.12,943.83,68.32,971.9c-6.56,3.76-13.12,9.38-19.67,14.05C45.84,987.84,43,988.76,39.29,991.58Z" transform="translate(-33.17 -78.57)"/><path class="cls-11" d="M335.14,636.74c-1.87,7.51-3.75,15.93-6.56,23.42C310.8,705.1,279,737.86,237.77,759.4c-29,15-59.92,26.21-88.94,40.25-30.9,14-61.79,29-92.69,43.07a45.88,45.88,0,0,1-6.55,2.81c5.61-28.1,18.73-47.74,43.06-60.86C139.47,758.47,186.28,732.24,234,707c31.84-17.78,64.61-35.57,90.83-61.79l8.43-8.43Z" transform="translate(-33.17 -78.57)"/><path class="cls-12" d="M434.38,785.61c-26.22-15-39.33-37.45-40.26-67.39-.94-20.61-.94-40.28-1.88-60.87s-3.75-41.2-15-59c25.28,11.23,50.54,45.88,56.17,77.7,5.62,35.58,4.68,71.15,1.86,105.79A5.68,5.68,0,0,1,434.38,785.61Z" transform="translate(-33.17 -78.57)"/><path class="cls-13" d="M656.76,755.86l-16.87,15.51v20.4h-9.65V690.85h9.65v68.41l42.71-39h12L664,749.47l33.46,42.3H685.59Z" transform="translate(-33.17 -78.57)"/><path class="cls-13" d="M825.27,774.5l5.44,6.25c-6.39,7.62-16.19,11.7-27.48,11.7-22.3,0-37.67-15.23-37.67-36.45s14.82-36.32,35.36-36.32c19.18,0,33.6,14,34.28,34.14l-58.76,11.43c3.54,11.56,13.6,18.63,26.93,18.63C812.21,783.88,820,780.75,825.27,774.5Zm-50.33-19.18a20.41,20.41,0,0,0,.14,3l50.46-9.79c-2-11.7-11.42-20.54-24.62-20.54C785.69,728,774.94,739.13,774.94,755.32Z" transform="translate(-33.17 -78.57)"/><path class="cls-13" d="M971.06,774.5l5.44,6.25c-6.39,7.62-16.18,11.7-27.47,11.7-22.31,0-37.68-15.23-37.68-36.45s14.83-36.32,35.37-36.32c19.17,0,33.59,14,34.27,34.14l-58.76,11.43c3.54,11.56,13.6,18.63,26.93,18.63C958,783.88,965.76,780.75,971.06,774.5Zm-50.32-19.18a22,22,0,0,0,.13,3l50.46-9.79c-2-11.7-11.42-20.54-24.61-20.54C931.48,728,920.74,739.13,920.74,755.32Z" transform="translate(-33.17 -78.57)"/><path class="cls-13" d="M1136.85,756c0,21.76-15.23,36.45-35.64,36.45-11.42,0-21.21-4.9-27.2-14.15v39.86h-9.66V720.23h9.25v14.14c5.85-9.52,15.78-14.69,27.61-14.69C1121.62,719.68,1136.85,734.37,1136.85,756Zm-9.66,0c0-16.59-11.56-27.88-26.66-27.88s-26.65,11.29-26.65,27.88,11.42,27.88,26.65,27.88S1127.19,772.73,1127.19,756Z" transform="translate(-33.17 -78.57)"/><path class="cls-13" d="M1218,697.65a7,7,0,0,1,7.07-6.8,6.86,6.86,0,0,1,7.07,6.66,7.07,7.07,0,0,1-14.14.14Zm2.17,22.58h9.66v71.54h-9.66Z" transform="translate(-33.17 -78.57)"/><path class="cls-13" d="M1386.28,750.29v41.48h-9.66V751.24c0-15.1-7.89-22.85-21.49-22.85-15.37,0-25,9.52-25,25.84v37.54h-9.65V720.23h9.24v13.19c5.17-8.7,14.83-13.74,27.21-13.74C1374.31,719.68,1386.28,729.75,1386.28,750.29Z" transform="translate(-33.17 -78.57)"/><path class="cls-13" d="M1542.68,720.23v62.83c0,24.62-12.11,35.78-35.77,35.78-13.06,0-25.85-4-33.33-11l4.9-7.35c6.8,6.12,17.14,9.8,28.15,9.8,18.09,0,26.39-8.3,26.39-26v-9.11c-6,9.11-16.19,13.87-27.88,13.87-20.4,0-35.91-14.28-35.91-34.82s15.51-34.55,35.91-34.55c12,0,22.3,4.9,28.29,14.29V720.23Zm-9.39,34c0-15.51-11.42-26.11-27.2-26.11S1479,738.72,1479,754.23s11.29,26.25,27.07,26.25S1533.29,769.74,1533.29,754.23Z" transform="translate(-33.17 -78.57)"/><path class="cls-13" d="M1811.82,696.56v95.21h-9.65v-16c-6.39,11.56-17.55,16.87-32,16.87-22.3,0-36.31-13.74-36.31-39.31V696.56H1744V753c0,20.4,10.75,30.6,28.16,30.6,18.09,0,29.65-10.47,29.65-32.92V696.56Z" transform="translate(-33.17 -78.57)"/><path class="cls-13" d="M2013.1,711.8v8.43h22v8.16h-21.77v63.38h-9.65V711.39c0-12.79,7.61-21.22,21.62-21.22,5.31,0,10.75,1.5,14.28,4.49l-3.26,7.21a16.32,16.32,0,0,0-10.61-3.54C2017.45,698.33,2013.1,703,2013.1,711.8Z" transform="translate(-33.17 -78.57)"/><path class="cls-13" d="M2120.54,697.65a7,7,0,0,1,7.07-6.8,6.86,6.86,0,0,1,7.08,6.66,7.08,7.08,0,0,1-14.15.14Zm2.18,22.58h9.66v71.54h-9.66Z" transform="translate(-33.17 -78.57)"/><path class="cls-13" d="M2259,719.68v9.39c-.81,0-1.63-.14-2.31-.14-15,0-24.07,9.52-24.07,26.39v36.45H2223V720.23h9.25v14C2236.69,724.72,2245.8,719.68,2259,719.68Z" transform="translate(-33.17 -78.57)"/><path class="cls-13" d="M2330.66,783.61,2335,776c5.72,4.49,15.37,8,25.44,8,13.6,0,19.18-4.63,19.18-11.7,0-18.63-46.38-4-46.38-32.23,0-11.7,10.06-20.41,28.29-20.41,9.25,0,19.31,2.59,25.3,6.67l-4.22,7.75q-.61-.42-1.23-.81a37.21,37.21,0,0,0-19.85-5.31c-12.92,0-18.64,5-18.64,11.83,0,19.32,46.38,4.76,46.38,32.24,0,12.37-10.88,20.4-29.51,20.4C2347.94,792.45,2336.51,788.64,2330.66,783.61Z" transform="translate(-33.17 -78.57)"/><path class="cls-13" d="M2506,787.42c-3.67,3.4-9.38,5-15,5-13.46,0-20.94-7.62-20.94-20.81v-67h9.65v15.64h21.63v8.16h-21.63V771.1c0,8.43,4.22,13,12.24,13a15.73,15.73,0,0,0,10.61-3.67Z" transform="translate(-33.17 -78.57)"/><rect class="cls-14" x="1693.17" y="734.39" width="98.92" height="9.42"/><path class="cls-15" d="M711.51,236.43c-19,7-34.72,16.86-46.82,29.36a112.63,112.63,0,0,0-26.46,44.69c-5.33,16.76-8,35.4-8,55.39V624.52h81.87V472.74h233.1v-78.3l-1.74-.14H712.07v-29a76.32,76.32,0,0,1,3.35-23.07,40.88,40.88,0,0,1,10.88-17.39c5.24-5.07,12.51-9.18,21.64-12.22,9.43-3.15,21.46-4.73,35.75-4.73H945.17V226h-166C753,226,730.24,229.53,711.51,236.43Z" transform="translate(-33.17 -78.57)"/><path class="cls-16" d="M1308.86,424c12.7-7.13,22.89-16.25,30.36-27.24,10.1-14.84,15.21-34.4,15.21-58.17a126.62,126.62,0,0,0-7.86-45.27,92,92,0,0,0-25-36.13c-11.15-10-25.44-17.73-42.45-23.14-16.76-5.32-37.12-8-60.51-8H1049.74c-25.29,0-39.23,13.72-39.23,38.66v321.2c0,24.92,13.94,38.64,39.23,38.64h170.54c23.43,0,43.82-2.8,60.58-8.33,17-5.6,31.26-13.46,42.39-23.38a92,92,0,0,0,25-36.14,126.62,126.62,0,0,0,7.88-45.27c0-23.78-5.43-43.65-16.11-59.08A96.28,96.28,0,0,0,1308.86,424ZM1091.28,306.74h129.57c18.35,0,31.63,3.89,39.45,11.54S1272,336.17,1272,349.39c0,16.59-5.37,38.66-51.74,38.66h-129Zm170.61,225.38c-8,7.38-21.45,11.11-39.9,11.11H1091.23v-84.7H1222c46.36,0,51.73,24,51.73,42.06C1273.72,514.47,1269.85,524.79,1261.89,532.12Z" transform="translate(-33.17 -78.57)"/><path class="cls-17" d="M1732,422.29c-10.39-11.4-24.6-20.74-42.23-27.76s-40-10.47-67-10.47h-89.81c-10.52,0-19.08-1.11-25.47-3.3-6.09-2.08-11-4.92-14.51-8.47a28,28,0,0,1-7.26-11.75,49.19,49.19,0,0,1-2.22-14.57c0-11.43,3.25-20.47,10-27.64,6.48-6.94,17.47-10.44,32.68-10.44H1730.2V226H1528.39c-22,0-41.17,2.93-57.09,8.69-16.13,5.84-29.58,14.18-40,24.79a95.77,95.77,0,0,0-22.8,37.86,150.22,150.22,0,0,0-6.9,46.34,158.93,158.93,0,0,0,5.66,41.72,97,97,0,0,0,20.91,38.75c10,11.47,23.88,20.75,41.19,27.59,17.09,6.75,39.23,10.19,65.84,10.19h89.25c10.87,0,19.91,1.19,26.88,3.58,6.71,2.29,12,5.26,15.75,8.86a28.87,28.87,0,0,1,7.75,12.28,51.27,51.27,0,0,1,2.48,15.64c0,12.15-3.51,21.73-10.74,29.28-7,7.34-18.73,11.08-34.73,11.08H1408.44v81.85h221.14c22.75,0,42.47-3,58.56-9,16.3-6,29.94-14.56,40.52-25.34A99.12,99.12,0,0,0,1752,551.82a149.48,149.48,0,0,0,7.19-47.25,169.24,169.24,0,0,0-5.63-42.81A93.79,93.79,0,0,0,1732,422.29Z" transform="translate(-33.17 -78.57)"/><path class="cls-18" d="M2510.13,542.67H2353.8c-14.28,0-26.2-1.58-35.42-4.73-9-3.05-16.17-7.16-21.4-12.24a40.28,40.28,0,0,1-10.85-17.88,80.84,80.84,0,0,1-3.38-23.71V226h-81.87V484.67c0,20,2.7,38.65,8,55.4a112.45,112.45,0,0,0,26.46,44.68c12.1,12.51,27.85,22.39,46.8,29.36,18.73,6.92,41.49,10.41,67.65,10.41h160.31V542.67Z" transform="translate(-33.17 -78.57)"/><path class="cls-19" d="M2145.08,302.1a104.94,104.94,0,0,0-23.85-39.43c-10.74-11.12-24.51-20.11-40.94-26.73s-36-9.92-58.46-9.92H1842.42a24.6,24.6,0,0,0-24.6,24.6v57.27l.48,208V624.52h81.86V478.42a7.62,7.62,0,0,1,.22-2,4.84,4.84,0,0,1,2.07-.31h119.38c23.33,0,43.59-3.85,60.2-11.47s30.35-17.59,40.89-29.73a112.55,112.55,0,0,0,22.8-41.35,157.06,157.06,0,0,0,6.85-45.34A144.47,144.47,0,0,0,2145.08,302.1Zm-77.68,66.83a43.2,43.2,0,0,1-8,14.34,38.14,38.14,0,0,1-13.84,10c-5.83,2.59-13,3.91-21.44,3.91H1900.16V307.89h124.5c16.06,0,27.33,4.06,34.46,12.45,7.42,8.74,11,19,11,31.31A54.65,54.65,0,0,1,2067.4,368.93Z" transform="translate(-33.17 -78.57)"/></svg>