<svg width="42" height="42" viewBox="0 0 42 42" fill="none" xmlns="http://www.w3.org/2000/svg">
<g clip-path="url(#clip0_107_5678)">
<path d="M37.4427 0H4.55727C2.04036 0 0 2.04036 0 4.55727V37.4427C0 39.9596 2.04036 42 4.55727 42H37.4427C39.9596 42 42 39.9596 42 37.4427V4.55727C42 2.04036 39.9596 0 37.4427 0Z" fill="#0A66C2"/>
<path d="M13.6498 16.7118H8.67554V33.7671H13.6498V16.7118Z" fill="white"/>
<path d="M11.6409 14.163C13.2681 13.8989 14.3731 12.3656 14.109 10.7384C13.8448 9.1112 12.3116 8.0062 10.6844 8.27034C9.05715 8.53447 7.95215 10.0677 8.21628 11.6949C8.48042 13.3222 10.0137 14.4272 11.6409 14.163Z" fill="white"/>
<path d="M25.3874 16.5759C24.1163 16.8937 22.9351 17.9646 22.4539 19.2247V16.4271H17.4796V33.7653H22.4539V24.1162C22.4539 23.2327 22.8121 22.4337 23.3907 21.8551C23.9785 21.2673 24.7941 20.9072 25.696 20.9183C27.4575 20.9421 28.8499 22.4263 28.8499 24.1879V33.7653H33.8241V22.1104C33.8241 17.6982 29.2632 15.6042 25.3874 16.5741V16.5759Z" fill="white"/>
</g>
<defs>
<clipPath id="clip0_107_5678">
<rect width="42" height="42" fill="white"/>
</clipPath>
</defs>
</svg>
