<svg xmlns="http://www.w3.org/2000/svg" width="22.648" height="22.648" viewBox="0 0 22.648 22.648">
  <g id="play-circle-svgrepo-com_2_" data-name="play-circle-svgrepo-com (2)" transform="translate(-2 -2)">
    <path id="Path_18" data-name="Path 18" d="M13.324,23.648A10.324,10.324,0,0,0,23.648,13.324a10.525,10.525,0,0,0-2.255-6.441A10.137,10.137,0,0,0,13.324,3a10.324,10.324,0,0,0,0,20.648Zm3.7-9.157a1.344,1.344,0,0,0,0-2.333l-5.1-2.912a1.174,1.174,0,0,0-1.757,1.02v6.118a1.174,1.174,0,0,0,1.757,1.02Z" fill="none" fill-rule="evenodd" opacity="0.1"/>
    <path id="Path_19" data-name="Path 19" d="M23.648,13.324A10.324,10.324,0,1,1,13.324,3,10.324,10.324,0,0,1,23.648,13.324Z" fill="none" stroke="#FFF" stroke-width="2"/>
    <path id="Path_20" data-name="Path 20" d="M11.106,8.836l-.278-.159A.888.888,0,0,0,9.5,9.447v6.118a.888.888,0,0,0,1.328.771l.278-.159,4.818-2.753a1.057,1.057,0,0,0,0-1.835Z" transform="translate(0.956 0.818)" fill="none" stroke="#FFF" stroke-linecap="round" stroke-linejoin="round" stroke-width="2"/>
  </g>
</svg>