<svg xmlns="http://www.w3.org/2000/svg" width="19.206" height="22.648" viewBox="0 0 19.206 22.648">
  <g id="share-svgrepo-com_4_" data-name="share-svgrepo-com (4)" transform="translate(-3 -2)">
    <path id="Path_21" data-name="Path 21" d="M9.735,12.368A2.868,2.868,0,1,1,6.868,9.5,2.868,2.868,0,0,1,9.735,12.368Z" transform="translate(0 0.956)" fill="none" stroke="#FFF" stroke-width="2"/>
    <path id="Path_22" data-name="Path 22" d="M14.735,6.5,9,10.515" transform="translate(0.735 0.515)" fill="none" stroke="#FFF" stroke-linecap="round" stroke-width="2"/>
    <path id="Path_23" data-name="Path 23" d="M14.735,18.015,9,14" transform="translate(0.735 1.618)" fill="none" stroke="#FFF" stroke-linecap="round" stroke-width="2"/>
    <path id="Path_24" data-name="Path 24" d="M19.735,18.868A2.868,2.868,0,1,1,16.868,16,2.868,2.868,0,0,1,19.735,18.868Z" transform="translate(1.471 1.912)" fill="none" stroke="#FFF" stroke-width="2"/>
    <path id="Path_25" data-name="Path 25" d="M19.735,5.868A2.868,2.868,0,1,1,16.868,3,2.868,2.868,0,0,1,19.735,5.868Z" transform="translate(1.471)" fill="none" stroke="#FFF" stroke-width="2"/>
  </g>
</svg>