<svg xmlns="http://www.w3.org/2000/svg" width="45" height="37" viewBox="0 0 45 37">
  <g id="icons8-youtube" transform="translate(-4 -9)">
    <path id="Path_50" data-name="Path 50" d="M47.99,39.71a5.869,5.869,0,0,1-4.713,4.933A106.492,106.492,0,0,1,26.444,46,109.023,109.023,0,0,1,9.611,44.643,5.869,5.869,0,0,1,4.9,39.71,79.165,79.165,0,0,1,4,27.5a79.165,79.165,0,0,1,.9-12.21,5.869,5.869,0,0,1,4.713-4.933A106.492,106.492,0,0,1,26.444,9a107.747,107.747,0,0,1,16.833,1.357A5.869,5.869,0,0,1,47.99,15.29,76.694,76.694,0,0,1,49,27.5,92.855,92.855,0,0,1,47.99,39.71Z" transform="translate(0)" fill="#ff3d00"/>
    <path id="Path_51" data-name="Path 51" d="M20,31V17l12,7Z" transform="translate(2.79 3.5)" fill="#fff"/>
  </g>
</svg>
